<?xml version="1.0" encoding="utf-8"?>
<!-- Generator: Adobe Illustrator 24.2.1, SVG Export Plug-In . SVG Version: 6.00 Build 0)  -->
<svg version="1.1" id="Layer_1" xmlns="http://www.w3.org/2000/svg" xmlns:xlink="http://www.w3.org/1999/xlink" x="0px" y="0px"
	 viewBox="0 0 1668.2 433.1" style="enable-background:new 0 0 1668.2 433.1;" xml:space="preserve">
<style type="text/css">
	.st0{fill:#FFFFFF;}
</style>
<g>
	<path class="st0" d="M472.1,95.6V95c0-16.2,11.2-27.6,26.2-27.6c12.4,0,22,6.2,23.2,18.9h-10.2c-1.1-7.2-5.1-10.9-12.9-10.9
		c-9.5,0-15.7,7.4-15.7,19.5v0.6c0,12.2,5.8,19.3,15.8,19.3c7.5,0,12.8-3.8,13.8-11.4h9.8c-1.6,13-10.8,19.6-23.6,19.6
		C481.6,123,472.1,112.2,472.1,95.6z"/>
	<path class="st0" d="M532.2,95.6V95c0-15.8,11.3-27.5,27.3-27.5s27.2,11.4,27.2,27.2v0.6c0,15.8-10.8,27.6-27.2,27.6
		C543,123,532.2,111.2,532.2,95.6z M576.3,95.5v-0.6c0-11.1-6.2-19.3-16.8-19.3s-16.8,7.8-16.8,19.4v0.6c0,11.8,7.2,19.4,17,19.4
		C569.9,114.9,576.3,107.2,576.3,95.5L576.3,95.5z"/>
	<path class="st0" d="M599,68.3h12l22.7,39v-39h9.1v54h-10.4l-24.3-41.4v41.4H599V68.3z"/>
	<path class="st0" d="M655.7,105.5h9.7c0.7,5.4,2.9,10,12,10c6,0,10.2-3.3,10.2-8.3s-2.5-6.9-11.2-8.3c-12.9-1.7-19-5.7-19-15.8
		c0-8.8,7.5-15.5,18.8-15.5c11.6,0,18.6,5.3,19.6,15.6h-9.2c-1-5.7-4.2-8.1-10.4-8.1s-9.3,2.9-9.3,7.1c0,4.4,1.8,6.6,11.2,7.9
		c12.7,1.7,19.3,5.4,19.3,16.2c0,9.4-7.9,16.7-19.9,16.7C662.6,123,656.4,115.7,655.7,105.5z"/>
	<path class="st0" d="M710.3,68.3h33.8v7.9h-23.7V91h19v7.6h-19v15.8h25v7.9h-35L710.3,68.3z"/>
	<path class="st0" d="M758.2,68.3h12l22.7,39v-39h9.1v54h-10.4l-24.3-41.4v41.4h-9.1V68.3z"/>
	<path class="st0" d="M814.9,105.5h9.7c0.7,5.4,2.9,10,12,10c6,0,10.2-3.3,10.2-8.3s-2.5-6.9-11.2-8.3c-12.9-1.7-19-5.7-19-15.8
		c0-8.8,7.5-15.5,18.8-15.5c11.6,0,18.6,5.3,19.6,15.6h-9.2c-1-5.7-4.2-8.1-10.4-8.1s-9.3,2.9-9.3,7.1c0,4.4,1.8,6.6,11.2,7.9
		c12.7,1.7,19.2,5.4,19.2,16.2c0,9.4-7.9,16.7-19.8,16.7C821.8,123,815.6,115.7,814.9,105.5z"/>
	<path class="st0" d="M879.9,98.9L862,68.3h11.1l12.2,22.3l11.8-22.3h9.8L890,98.9v23.3h-10.1V98.9z"/>
	<path class="st0" d="M912.5,105.5h9.7c0.7,5.4,2.9,10,12,10c6,0,10.2-3.3,10.2-8.3s-2.5-6.9-11.2-8.3c-12.9-1.7-19-5.7-19-15.8
		c0-8.8,7.5-15.5,18.8-15.5c11.6,0,18.6,5.3,19.6,15.6h-9.2c-1-5.7-4.2-8.1-10.4-8.1s-9.3,2.9-9.3,7.1c0,4.4,1.8,6.6,11.2,7.9
		c12.7,1.7,19.3,5.4,19.3,16.2c0,9.4-7.9,16.7-19.9,16.7C919.5,123,913.3,115.7,912.5,105.5z"/>
	<path class="st0" d="M476.2,166.3c0-1.7,1.4-3.1,3.1-3.1h64c72,0,107.5,39,107.5,100.3v2.3c0,61.4-35.8,102.4-107.8,102.4h-63.7
		c-1.7,0-3.1-1.4-3.1-3.1c0,0,0,0,0,0V166.3z M541.6,332c41.3,0,60.8-23.2,60.8-65.6v-2.3c0-42.1-18.1-64.8-61.3-64.8h-18.4V332
		H541.6z"/>
	<path class="st0" d="M665.2,175.2c0-12.9,10.3-22.6,23.5-22.6c13.5,0,23.8,9.8,23.8,22.6s-10.3,22.6-23.8,22.6
		C675.5,197.9,665.2,188.1,665.2,175.2z M671.4,218.2h35.1c1.7,0,3.1,1.4,3.1,3.1c0,0,0,0,0,0v143.8c0,1.7-1.4,3.1-3.1,3.1
		c0,0,0,0,0,0h-35.1c-1.7,0-3.1-1.4-3.1-3.1c0,0,0,0,0,0V221.3C668.3,219.6,669.7,218.2,671.4,218.2
		C671.4,218.2,671.4,218.2,671.4,218.2L671.4,218.2z"/>
	<path class="st0" d="M741.9,150.3H777c1.7,0,3.1,1.4,3.1,3.1v0v211.7c0,1.7-1.4,3.1-3.1,3.1c0,0,0,0,0,0h-35.1
		c-1.7,0-3.1-1.4-3.1-3.1c0,0,0,0,0,0V153.4C738.8,151.7,740.2,150.3,741.9,150.3L741.9,150.3z"/>
	<path class="st0" d="M805.9,175.2c0-12.9,10.3-22.6,23.5-22.6c13.5,0,23.8,9.8,23.8,22.6s-10.3,22.6-23.8,22.6
		C816.2,197.9,805.9,188.1,805.9,175.2z M812.1,218.2h35.1c1.7,0,3.1,1.4,3.1,3.1c0,0,0,0,0,0v143.8c0,1.7-1.4,3.1-3.1,3.1
		c0,0,0,0,0,0h-35.1c-1.7,0-3.1-1.4-3.1-3.1c0,0,0,0,0,0V221.3C809.1,219.6,810.4,218.2,812.1,218.2
		C812.1,218.2,812.1,218.2,812.1,218.2L812.1,218.2z"/>
	<path class="st0" d="M874.9,371.3h35.2c1.4,0,2.6,0.9,3,2.3c3.2,11.9,12.8,19.5,32.7,19.5c25.2,0,37.8-13.2,37.8-36.7v-22.6
		c-10,17.1-28.3,27.7-48.2,27.8c-36.4,0-65.4-27.2-65.4-71.7v-2c0-43,28.7-73.1,65.9-73.1c24.4,0,39,10.6,47.6,25.8v-19.3
		c0-1.7,1.4-3.1,3.1-3.1c0,0,0,0,0,0h35.1c1.7,0,3.1,1.4,3.1,3.1c0,0,0,0,0,0v135.1c-0.3,44.4-29.8,67.1-79.1,67.1
		c-46.5,0-68.7-19.6-74-48.5c-0.3-1.7,0.8-3.3,2.5-3.6C874.5,371.3,874.7,371.3,874.9,371.3z M984.8,289.3v-2
		c0-25.5-13.5-41-36.1-41c-23.2,0-36.1,16.6-36.1,41.3v2.3c0,24.9,14.6,40.4,35.3,40.4C969.6,330.3,984.8,314.8,984.8,289.3
		L984.8,289.3z"/>
	<path class="st0" d="M1039.6,295.1v-2.3c0-47.3,33.5-78,77.1-78c38.7,0,73.1,22.6,73.1,76.3v8.4c0,1.7-1.4,3.1-3.1,3.1c0,0,0,0,0,0
		h-105c1.2,24.9,14.6,39.3,37.3,39.3c18,0,27.5-7.3,30.7-18.7c0.4-1.3,1.6-2.2,2.9-2.2h33.2c1.7,0,3.1,1.4,3.1,3.1
		c0,0.2,0,0.4-0.1,0.6c-6.2,30-31.6,46.7-71,46.7C1072.5,371.3,1039.6,342.9,1039.6,295.1z M1149.3,277
		c-1.4-22.6-12.9-33.5-32.7-33.5c-18.6,0-31.2,12.3-34.4,33.5H1149.3z"/>
	<path class="st0" d="M1208,218.2h35.4c1.7,0,3.1,1.4,3.1,3.1V242c7.4-14.9,23.8-27.2,48.7-27.2c29.5,0,50.5,17.8,50.5,57.9v92.4
		c0,1.7-1.4,3.1-3.1,3.1c0,0,0,0,0,0h-35.4c-1.7,0-3.1-1.4-3.1-3.1c0,0,0,0,0,0v-86.3c0-20.4-8-30.1-26.4-30.1
		c-17.8,0-31.2,10.9-31.2,33v83.5c0,1.7-1.4,3.1-3.1,3.1H1208c-1.7,0-3.1-1.4-3.1-3.1c0,0,0,0,0,0V221.3
		C1204.9,219.6,1206.3,218.2,1208,218.2C1208,218.2,1208,218.2,1208,218.2z"/>
	<path class="st0" d="M1358.9,295.1v-2.3c0-48.4,34.7-78,77.4-78c33.7,0,65,14.4,70.2,54.7c0.2,1.7-1,3.3-2.7,3.5
		c-0.1,0-0.3,0-0.4,0h-33.3c-1.4,0-2.7-1-3-2.4c-3.4-15.8-13.8-23.1-29.9-23.1c-21.5,0-35.8,16.1-35.8,44.7v2.3
		c0,30.1,13.5,45.6,36.7,45.6c15.9,0,28.9-8.9,31.8-26.4c0.2-1.5,1.5-2.5,3-2.5h31.5c1.7,0,3.1,1.4,3.1,3.1c0,0.1,0,0.2,0,0.3
		c-3.7,33.7-29.2,56.8-71.4,56.8C1392.2,371.3,1358.9,344.1,1358.9,295.1z"/>
	<path class="st0" d="M1518,295.1v-2.3c0-47.3,33.5-78,77.1-78c38.7,0,73.1,22.6,73.1,76.3v8.4c0,1.7-1.4,3.1-3.1,3.1h-105
		c1.2,24.9,14.6,39.3,37.3,39.3c18,0,27.5-7.3,30.7-18.7c0.4-1.3,1.6-2.3,3-2.2h33.2c1.7,0,3.1,1.4,3.1,3.1c0,0.2,0,0.4-0.1,0.6
		c-6.2,30-31.6,46.7-71,46.7C1551,371.3,1518,342.9,1518,295.1z M1627.8,277c-1.4-22.6-12.9-33.5-32.7-33.5
		c-18.6,0-31.2,12.3-34.4,33.5H1627.8z"/>
	<path class="st0" d="M216.5,0C97,0,0,97,0,216.5s97,216.6,216.5,216.6s216.6-97,216.6-216.6S336.1,0,216.5,0z M160.2,335.1
		c0,1.1-0.9,2-2,2h-42.2c-1.1,0-2-0.9-2-2V171.4c0-1.1,0.9-2,2-2h42.2c1.1,0,2,0.9,2,2V335.1z M137,146.6
		c-14.7,0-26.3-10.9-26.3-25.3S122.3,96,137,96c15.1,0,26.6,10.9,26.6,25.3S152.1,146.6,137,146.6z M240.2,335c0,1.1-0.9,2-2,2H196
		c-1.1,0-2-0.9-2-2V98c0-1.1,0.9-2,2-2h42.2c1.1,0,2,0.9,2,2V335z M320.1,335.1c0,1.1-0.9,2-2,2H276c-1.1,0-2-0.9-2-2V171.4
		c0-1.1,0.9-2,2-2h42.2c1.1,0,2,0.9,2,2V335.1z M322.4,144.7c0,1.1-0.9,2-2,2h-46.6c-1.1,0-2-0.9-2-2V98c0-1.1,0.9-2,2-2h46.6
		c1.1,0,2,0.9,2,2V144.7z"/>
</g>
</svg>
